<svg xmlns="http://www.w3.org/2000/svg" viewBox="0 0 192 192" width="192" height="192">
  <defs>
    <radialGradient id="bg" cx="50%" cy="42%" r="66%">
      <stop offset="0" stop-color="#40247a"/>
      <stop offset=".62" stop-color="#150a33"/>
      <stop offset="1" stop-color="#08041a"/>
    </radialGradient>
    <linearGradient id="rim" x1="0" y1="0" x2="0" y2="1">
      <stop offset="0" stop-color="#fff1c4"/>
      <stop offset=".45" stop-color="#d8ab56"/>
      <stop offset="1" stop-color="#76521f"/>
    </linearGradient>
    <linearGradient id="gold" gradientUnits="userSpaceOnUse" x1="0" y1="40" x2="0" y2="152">
      <stop offset="0" stop-color="#fff0b8"/>
      <stop offset=".5" stop-color="#e2b04f"/>
      <stop offset="1" stop-color="#8e5f18"/>
    </linearGradient>
    <radialGradient id="iris" cx="50%" cy="45%" r="60%">
      <stop offset="0" stop-color="#fbf0ff"/>
      <stop offset=".35" stop-color="#c79bff"/>
      <stop offset=".8" stop-color="#6a33c8"/>
      <stop offset="1" stop-color="#2d1266"/>
    </radialGradient>
    <linearGradient id="gem" x1="0" y1="0" x2="1" y2="1">
      <stop offset="0" stop-color="#ffffff"/>
      <stop offset=".6" stop-color="#e6d4ff"/>
      <stop offset="1" stop-color="#9f78f0"/>
    </linearGradient>
    <filter id="glow" x="-20%" y="-20%" width="140%" height="140%"><feGaussianBlur stdDeviation="5"/></filter>
    <filter id="soft" x="-60%" y="-60%" width="220%" height="220%"><feGaussianBlur stdDeviation="7"/></filter>
  </defs>
  <circle cx="96" cy="96" r="82" fill="#9a62ff" opacity=".32" filter="url(#glow)"/>
  <circle cx="96" cy="96" r="80" fill="url(#bg)"/>
  <circle cx="96" cy="96" r="80" fill="none" stroke="url(#rim)" stroke-width="7"/>
  <circle cx="96" cy="96" r="69" fill="none" stroke="#b58cff" stroke-opacity=".4" stroke-width="2"/>
  <g stroke="url(#gold)" stroke-width="5" stroke-linecap="round">
    <path d="M96 40 V54"/><path d="M66 48 L73 60"/><path d="M126 48 L119 60"/>
    <path d="M96 152 V138"/><path d="M66 144 L73 132"/><path d="M126 144 L119 132"/>
  </g>
  <path d="M36 96 C60 64 132 64 156 96 C132 128 60 128 36 96 Z" fill="#0d0620" stroke="url(#gold)" stroke-width="5" stroke-linejoin="round"/>
  <circle cx="96" cy="96" r="30" fill="#b17cff" opacity=".55" filter="url(#soft)"/>
  <circle cx="96" cy="96" r="23" fill="url(#iris)" stroke="#e8d6ff" stroke-opacity=".6" stroke-width="1.5"/>
  <path d="M96 78 L106 96 L96 114 L86 96 Z" fill="url(#gem)" stroke="#4a2296" stroke-width="1.5" stroke-linejoin="round"/>
  <path d="M96 78 L96 114 M86 96 H106" stroke="#7d55d6" stroke-opacity=".55" stroke-width="1"/>
  <path d="M58 90 C70 78 84 74 96 74" fill="none" stroke="#fff" stroke-opacity=".35" stroke-width="2" stroke-linecap="round"/>
</svg>
