<svg xmlns="http://www.w3.org/2000/svg" width="860" height="1864" viewBox="0 0 860 1864"><defs><linearGradient id="sky" x2="0" y2="1"><stop stop-color="#09091d"/><stop offset=".55" stop-color="#10091b"/><stop offset="1" stop-color="#030309"/></linearGradient><radialGradient id="moon"><stop stop-color="#b780e0"/><stop offset=".72" stop-color="#8d55bc"/><stop offset="1" stop-color="#49246e"/></radialGradient><radialGradient id="glow"><stop stop-color="#9c5ee0" stop-opacity=".48"/><stop offset="1" stop-color="#5c2c8a" stop-opacity="0"/></radialGradient><filter id="blur"><feGaussianBlur stdDeviation="18"/></filter><pattern id="stone" width="150" height="90" patternUnits="userSpaceOnUse" patternTransform="skewX(-9)"><path d="M0 2h150M75 2v88M0 88h150" stroke="#70637b" stroke-opacity=".18" stroke-width="3"/></pattern></defs><rect width="860" height="1864" fill="url(#sky)"/><ellipse cx="430" cy="330" rx="270" ry="260" fill="url(#glow)"/><circle cx="430" cy="315" r="142" fill="url(#moon)"/><path d="M0 700l70-30 30-145 35 75 35-210 33 205 58-20 28-125 36 122 42-250 38 245 58 15 32-130 36 125 42-235 40 240 55 20 30-118 30 118 80-33 34-145 32 147 48 36v260H0z" fill="#05040c"/><g fill="#a26bd0" opacity=".36"><path d="M180 590h10v48h-10zM360 510h11v57h-11zM583 506h10v59h-10zM738 565h10v50h-10z"/></g><path d="M0 815L140 730l150 45 145-82 142 90 150-65 173 93v475H0z" fill="#090812"/><g fill="#100d19" stroke="#675778" stroke-opacity=".42" stroke-width="4"><path d="M28 1085V930l58-92 58 92v155zM190 1085V900l59-96 59 96v185zM550 1085V900l59-96 59 96v185zM715 1085V930l58-92 58 92v155z"/></g><g fill="#080710"><path d="M43 1085V951h86v134zM205 1085V921h88v164zM565 1085V921h88v164zM730 1085V951h86v134z"/></g><g fill="#9d6ac2" opacity=".16" filter="url(#blur)"><ellipse cx="210" cy="785" rx="300" ry="65"/><ellipse cx="670" cy="910" rx="350" ry="70"/><ellipse cx="420" cy="1090" rx="430" ry="76"/></g><path d="M0 1070Q430 980 860 1070v794H0z" fill="#090810"/><path d="M0 1070Q430 980 860 1070v794H0z" fill="url(#stone)"/><ellipse cx="430" cy="1305" rx="315" ry="85" fill="url(#glow)"/><g fill="none" stroke="#9e67d1" opacity=".32"><ellipse cx="430" cy="1305" rx="265" ry="65" stroke-width="6"/><ellipse cx="430" cy="1305" rx="195" ry="45" stroke-width="2"/></g><path d="M0 1510Q430 1410 860 1510v354H0z" fill="#030309" opacity=".72"/></svg>